# xmcd
#
# Track frame offsets: 
#        182
#        29175
#        51990
#        74567
#        91860
#        111105
#        138055
#        161357
#        175580
#        195502
#        220482
#        255590
#
# Disc length: 3637 seconds
#
# Revision: 44
# Processed by: cddbd v1.5.2PL0 Copyright (c) Steve Scherf et al.
# Submitted via: ExactAudioCopy v1.3
#
DISCID=a80e330c
DTITLE=Dire Straits - Dire Straits_On Every Street
DYEAR=1991
DGENRE=Data
TTITLE0=Calling Elvis
TTITLE1=On Every Street
TTITLE2=When It Comes To You
TTITLE3=Fade To Black
TTITLE4=The Bug
TTITLE5=You And Your Friend
TTITLE6=Heavy Fuel
TTITLE7=Iron Hand
TTITLE8=Ticket To Heaven
TTITLE9=My Parties
TTITLE10=Planet Of New Orleans
TTITLE11=How Long
EXTD=
EXTT0=
EXTT1=
EXTT2=
EXTT3=
EXTT4=
EXTT5=
EXTT6=
EXTT7=
EXTT8=
EXTT9=
EXTT10=
EXTT11=
PLAYORDER=
